<?xml version="1.0" encoding="UTF-8"?>
<svg id="Laag_2" data-name="Laag 2" xmlns="http://www.w3.org/2000/svg" xmlns:xlink="http://www.w3.org/1999/xlink" viewBox="0 0 436.21 106.56">
  <defs>
    <style>
      .cls-1 {
        letter-spacing: -.08em;
      }

      .cls-2 {
        clip-path: url(#clippath-2);
      }

      .cls-3 {
        fill: url(#Naamloos_verloop_2);
      }

      .cls-4 {
        letter-spacing: -.02em;
      }

      .cls-5 {
        letter-spacing: 0em;
      }

      .cls-6 {
        clip-path: url(#clippath-1);
      }

      .cls-7 {
        fill: #c6c6c6;
      }

      .cls-7, .cls-8 {
        font-family: Rockwell-Condensed, 'Rockwell Condensed';
        font-size: 72.29px;
      }

      .cls-9 {
        clip-path: url(#clippath);
      }

      .cls-10 {
        fill: none;
      }

      .cls-8 {
        fill: #009640;
      }

      .cls-11 {
        fill: url(#Naamloos_verloop_2-2);
      }

      .cls-12 {
        letter-spacing: 0em;
      }
    </style>
    <clipPath id="clippath">
      <rect class="cls-10" x="0" y="0" width="436.21" height="106.56"/>
    </clipPath>
    <clipPath id="clippath-1">
      <rect class="cls-10" x="0" y="0" width="436.21" height="106.56"/>
    </clipPath>
    <linearGradient id="Naamloos_verloop_2" data-name="Naamloos verloop 2" x1="-119.8" y1="-501.12" x2="-118.56" y2="-501.12" gradientTransform="translate(7335.95 -30454.91) scale(60.88 -60.88)" gradientUnits="userSpaceOnUse">
      <stop offset="0" stop-color="#68b42e"/>
      <stop offset=".01" stop-color="#57ae2f"/>
      <stop offset=".05" stop-color="#31a031"/>
      <stop offset=".08" stop-color="#169633"/>
      <stop offset=".11" stop-color="#059134"/>
      <stop offset=".14" stop-color="#008f35"/>
      <stop offset=".2" stop-color="#069134"/>
      <stop offset=".29" stop-color="#199732"/>
      <stop offset=".4" stop-color="#37a22f"/>
      <stop offset=".52" stop-color="#61b02b"/>
      <stop offset=".58" stop-color="#7ab929"/>
      <stop offset=".65" stop-color="#67b42d"/>
      <stop offset=".74" stop-color="#56af30"/>
      <stop offset=".81" stop-color="#51ae32"/>
      <stop offset="1" stop-color="#51ae32"/>
    </linearGradient>
    <linearGradient id="Naamloos_verloop_2-2" data-name="Naamloos verloop 2" x1="-119.74" y1="-502.11" x2="-118.5" y2="-502.11" gradientTransform="translate(6651.83 -27822.62) scale(55.55 -55.55)" xlink:href="#Naamloos_verloop_2"/>
    <clipPath id="clippath-2">
      <rect class="cls-10" x="0" y="0" width="436.21" height="106.56"/>
    </clipPath>
  </defs>
  <g id="Left_logo" data-name="Left logo">
    <g id="FeedbackFlow-Logo-Darkmode">
      <g class="cls-9">
        <g class="cls-6">
          <path class="cls-3" d="m71.49,81.23c3.45,2.62,8.45,6.16,14.82,9.84h0c3.05,1.76,5.09,2.79,6.3,3.3.6.26,1,.39,1.15.43l-.37,1.34v-1.36c.37,0,.37.02.37.02l-.37,1.34v-1.36s0,4.37,0,4.37l-2.72-3.38c.43-.47,2.12-1.1,2.72-.99v4.37l-2.72-3.38h0s2.19,2.72,2.19,2.72h-3.66c-.04-.06.13-1.65,1.47-2.72l2.19,2.72h-3.66c.27-.12-2.08-6.68-6.13-16.59h0c-2.34-5.96-4.3-11.19-5.86-15.44l-1.53-4.19,3.74-2.42c8.79-5.67,15.91-10.58,21.16-14.28h0c2.48-1.75,4.44-3.18,5.51-4.12.53-.46.8-.79.8-.79l2.55,1.85h-3.04c.03-1.33.5-1.84.49-1.85l2.55,1.85h-3.04,4.24l-4.05,1.25c-.13-.41-.19-.85-.19-1.25h4.24l-4.05,1.25,3.57-1.1-1.66,3.46c-.26-.08-1.47-.9-1.91-2.36l3.57-1.1-1.66,3.46s-.38-.14-1.85-.21c-1.48-.11-3.63-.15-6.31-.14-2.39,0-5.22.02-8.46.03-.15,0-.3,0-.44,0-7.49,0-13.88-.12-18.72-.26l-3.76-.1-1.31-3.53c-1.67-4.49-3.7-10.11-5.92-16.62h0c-1.99-5.83-3.39-10.18-4.42-12.7-.49-1.24-.94-2.02-.98-2.04l2.91-2.13v3.34c-2.1-.04-2.91-1.19-2.91-1.21l2.91-2.13v3.34-4.13l.11,4.13h-.11s0-4.13,0-4.13l.11,4.13h.02s-.12-4.24-.12-4.24l2.87,3.17c-.4.46-1.85,1.12-2.75,1.07l-.12-4.24,2.87,3.17-.89-.98,1.17.7s0,0-.28.27l-.89-.98,1.17.7c-.35.53-1.5,3.13-3.16,8.27-2.38,7.27-3.98,13.46-5.04,17.99l-10.86-2.53c1.11-4.77,2.8-11.29,5.3-18.93,1.6-4.84,2.66-7.66,3.77-9.78.79-1.81,3.11-4.72,6.64-4.82h.01s0,0,0,0h.18c6.67,1.06,6.84,5.03,8.4,7.78,1.31,3.24,2.68,7.54,4.65,13.3v.03s0-.04,0-.04c2.19,6.4,4.18,11.93,5.82,16.34l-5.23,1.94.16-5.58c4.76.13,11.04.25,18.41.25.14,0,.29,0,.43,0,3.19,0,6-.03,8.47-.03,3.7,0,6.56.04,9.08.38,2.15.44,5.82.61,7.82,5.48.21.67.31,1.37.31,2.04-1.58,7.88-5.71,7.9-10.54,12.18h-.02s.02,0,.02,0c-5.35,3.78-12.61,8.77-21.54,14.54l-3.03-4.69,5.24-1.92c1.53,4.18,3.46,9.32,5.77,15.19h0c3.9,10.3,6.59,15.13,6.9,20.67.06,1.58-.52,4.24-2.69,5.97h0c-.72.71-2.84,1.58-4.27,1.47-3.64-.23-5.94-1.48-12.67-5.21h0c-6.87-3.97-12.25-7.78-15.98-10.62l6.75-8.88h0Z"/>
          <path class="cls-11" d="m49.68,55.33c-6.92-1.9-33.77-8.72-40.34-8.83h0s-.29,0-.29,0c-.29,0-.42.02-.42.02l-.52-3.16,1.98,2.41c-.92.72-1.44.73-1.46.75l-.52-3.16,1.98,2.41-2.93-3.57h4.61c.09,1.13-.73,2.91-1.69,3.57l-2.93-3.57h4.61s-2.63,0-2.63,0l2.25-1.73c-.14.11.25,0,.38,1.73h-2.63l2.25-1.73c.53.79,3.38,3.1,4.79,4.17h0c4.67,3.75,8.79,6.5,11.02,7.93h0c.59.38.82.52,1.51.96h0c2.41,1.52,5.61,3.58,9.57,6.24l4.08,2.75-2.22,4.39c-10.03,19.56-12.65,28.92-12.44,30.39h-3.03s1.52-2.15,1.52-2.15c1.61,1.17,1.53,2.13,1.52,2.15h-3.03l1.52-2.15h0s-2.32,3.3-2.32,3.3v-4.05c.58-.03,1.65.25,2.32.75l-2.32,3.3v-4.05,2.4l-.67-2.33s.24-.07.67-.08v2.4l-.67-2.33c.23.14,5.45-3.03,15.42-10.1,10.17-7.08,18.43-12.68,23.65-16.19l6.23,9.26c-5.18,3.49-13.4,9.05-23.5,16.09l-.05.04.05-.04c-12.19,8.04-14.67,11.21-21.13,12.02-1.3.03-2.94-.43-4.1-1.28h0c-2.64-1.89-3.26-4.86-3.22-6.97.21-6.32,3.49-15.06,13.64-35.42l4.98,2.52-3.12,4.63c-3.86-2.6-6.95-4.59-9.28-6.06h0c-.65-.41-.94-.59-1.59-1.01h0c-2.45-1.57-6.91-4.54-11.99-8.62h0c-.74-.6-2.5-1.92-4.17-3.44-1.52-1.87-3.74-2.46-4.41-7.7-.2-2.39,1.95-5.29,3.77-5.93,1.79-.83,3.17-.89,4.66-.92.22,0,.44,0,.66.01h0c9.85.43,35.32,7.25,42.85,9.2l-2.87,10.78h0Z"/>
        </g>
        <text class="cls-8" transform="translate(125.47 86.3)"><tspan class="cls-1" x="0" y="0">F</tspan><tspan class="cls-5" x="21.33" y="0">eedba</tspan><tspan class="cls-12" x="153.14" y="0">c</tspan><tspan x="177.73" y="0">k</tspan></text>
        <g class="cls-2">
          <text class="cls-7" transform="translate(329.53 86.3)"><tspan x="0" y="0">Fl</tspan><tspan class="cls-4" x="41.44" y="0">o</tspan><tspan x="65.24" y="0">w</tspan></text>
        </g>
      </g>
    </g>
  </g>
</svg>