<?xml version="1.0" encoding="UTF-8"?>
<svg id="Laag_2" data-name="Laag 2" xmlns="http://www.w3.org/2000/svg" xmlns:xlink="http://www.w3.org/1999/xlink" viewBox="0 0 95.36 85.98">
  <defs>
    <style>
      .cls-1 {
        fill: url(#Naamloos_verloop_2);
      }

      .cls-2 {
        clip-path: url(#clippath-1);
      }

      .cls-3 {
        clip-path: url(#clippath);
      }

      .cls-4 {
        fill: none;
      }

      .cls-5 {
        fill: url(#Naamloos_verloop_2-2);
      }
    </style>
    <clipPath id="clippath">
      <rect class="cls-4" width="95.36" height="85.98"/>
    </clipPath>
    <clipPath id="clippath-1">
      <rect class="cls-4" y="0" width="95.36" height="85.98"/>
    </clipPath>
    <linearGradient id="Naamloos_verloop_2" data-name="Naamloos verloop 2" x1="-178.03" y1="-335.82" x2="-177.03" y2="-335.82" gradientTransform="translate(10872.67 -20401.35) scale(60.88 -60.88)" gradientUnits="userSpaceOnUse">
      <stop offset="0" stop-color="#68b42e"/>
      <stop offset=".01" stop-color="#57ae2f"/>
      <stop offset=".05" stop-color="#31a031"/>
      <stop offset=".08" stop-color="#169633"/>
      <stop offset=".11" stop-color="#059134"/>
      <stop offset=".14" stop-color="#008f35"/>
      <stop offset=".2" stop-color="#069134"/>
      <stop offset=".29" stop-color="#199732"/>
      <stop offset=".4" stop-color="#37a22f"/>
      <stop offset=".52" stop-color="#61b02b"/>
      <stop offset=".58" stop-color="#7ab929"/>
      <stop offset=".65" stop-color="#67b42d"/>
      <stop offset=".74" stop-color="#56af30"/>
      <stop offset=".81" stop-color="#51ae32"/>
      <stop offset="1" stop-color="#51ae32"/>
    </linearGradient>
    <linearGradient id="Naamloos_verloop_2-2" data-name="Naamloos verloop 2" x1="-177.74" y1="-336.47" x2="-176.74" y2="-336.47" gradientTransform="translate(9873.86 -18634.66) scale(55.55 -55.55)" xlink:href="#Naamloos_verloop_2"/>
  </defs>
  <g id="Laag_1-2" data-name="Laag 1">
    <g id="FeedbackFlow-Logo-Only">
      <g class="cls-3">
        <g class="cls-2">
          <path class="cls-1" d="m57.68,65.54c2.79,2.12,6.81,4.97,11.96,7.94h0c2.46,1.42,4.11,2.25,5.09,2.66.49.21.8.31.93.34l-.3,1.08v-1.1c.3,0,.3.02.3.01l-.3,1.08v-1.1s0,3.53,0,3.53l-2.19-2.73c.34-.38,1.71-.89,2.19-.8v3.53l-2.19-2.73h0s1.77,2.19,1.77,2.19h-2.95s.1-1.33,1.19-2.19l1.77,2.19h-2.95c.22-.1-1.68-5.39-4.94-13.38h0c-1.89-4.81-3.47-9.03-4.73-12.45l-1.24-3.38,3.02-1.95c7.09-4.58,12.84-8.53,17.07-11.52h0c2-1.41,3.58-2.57,4.44-3.33.43-.37.64-.63.64-.64l2.06,1.49h-2.45c.03-1.07.4-1.48.39-1.49l2.06,1.49h-2.45,3.42l-3.27,1.01c-.1-.33-.15-.69-.15-1.01h3.42l-3.27,1.01,2.88-.89-1.34,2.79c-.21-.06-1.19-.72-1.54-1.9l2.88-.89-1.34,2.79s-.31-.11-1.49-.17c-1.2-.09-2.93-.12-5.09-.12-1.93,0-4.21.02-6.83.02-.12,0-.24,0-.36,0-6.05,0-11.2-.1-15.11-.21l-3.04-.08-1.06-2.85c-1.34-3.62-2.98-8.16-4.77-13.41h0c-1.6-4.7-2.74-8.21-3.57-10.24-.4-1-.76-1.63-.79-1.65l2.35-1.71v2.69c-1.69-.03-2.35-.96-2.35-.98l2.35-1.71v2.69-3.33l.09,3.33h-.09s0-3.33,0-3.33l.09,3.33h.02s-.1-3.42-.1-3.42l2.32,2.56c-.32.37-1.49.9-2.22.87l-.1-3.42,2.32,2.56-.71-.79.94.57s0,0-.23.22l-.71-.79.94.57c-.28.42-1.21,2.53-2.55,6.67-1.92,5.86-3.21,10.86-4.06,14.51l-8.77-2.04c.9-3.85,2.26-9.11,4.28-15.27,1.29-3.91,2.15-6.18,3.04-7.89.64-1.46,2.51-3.81,5.36-3.89h0s0,0,0,0h.15c5.38.85,5.52,4.06,6.78,6.28,1.06,2.61,2.16,6.08,3.75,10.73v.03s0-.03,0-.03c1.76,5.16,3.37,9.62,4.7,13.19l-4.22,1.56.13-4.5c3.84.11,8.91.21,14.86.21.12,0,.23,0,.35,0,2.57,0,4.84-.02,6.83-.02,2.99,0,5.3.03,7.33.3,1.74.36,4.7.49,6.31,4.42.17.54.25,1.11.25,1.65-1.28,6.36-4.61,6.37-8.5,9.82h-.01s.01,0,.01,0c-4.32,3.05-10.17,7.08-17.38,11.73l-2.44-3.78,4.23-1.55c1.24,3.37,2.79,7.52,4.65,12.26h0c3.14,8.31,5.32,12.2,5.57,16.68.04,1.27-.42,3.42-2.17,4.82h0c-.58.57-2.29,1.28-3.45,1.19-2.94-.18-4.79-1.19-10.22-4.2h0c-5.54-3.2-9.89-6.28-12.9-8.57l5.44-7.17h0Z"/>
          <path class="cls-5" d="m40.08,44.64c-5.59-1.53-27.25-7.04-32.55-7.13h0s-.23,0-.23,0c-.23,0-.34.02-.34.01l-.42-2.55,1.59,1.95c-.74.58-1.16.59-1.18.6l-.42-2.55,1.59,1.95-2.36-2.88h3.72c.07.91-.59,2.35-1.36,2.88l-2.36-2.88h3.72s-2.12,0-2.12,0l1.82-1.39c-.11.09.2,0,.31,1.39h-2.12l1.82-1.39c.43.64,2.73,2.5,3.87,3.37h0c3.76,3.02,7.09,5.24,8.89,6.4h0c.47.3.66.42,1.22.77h0c1.95,1.23,4.53,2.89,7.72,5.04l3.29,2.22-1.79,3.54c-8.09,15.78-10.21,23.33-10.04,24.52h-2.45s1.22-1.74,1.22-1.74c1.3.94,1.23,1.72,1.22,1.74h-2.45l1.22-1.74h0s-1.87,2.66-1.87,2.66v-3.27c.47-.02,1.33.2,1.87.61l-1.87,2.66v-3.27,1.94l-.54-1.88s.2-.06.54-.06v1.94l-.54-1.88c.18.11,4.4-2.45,12.44-8.15,8.2-5.71,14.87-10.23,19.08-13.06l5.02,7.47c-4.18,2.81-10.81,7.3-18.96,12.98l-.04.03.04-.03c-9.84,6.49-11.84,9.04-17.05,9.7-1.05.02-2.38-.35-3.31-1.03h0c-2.13-1.53-2.63-3.92-2.6-5.62.17-5.1,2.81-12.15,11-28.58l4.02,2.03-2.51,3.73c-3.11-2.1-5.61-3.7-7.49-4.89h0c-.52-.33-.76-.47-1.29-.81h0c-1.98-1.27-5.57-3.66-9.68-6.96h0c-.6-.48-2.02-1.55-3.36-2.77-1.22-1.51-3.02-1.99-3.56-6.22-.16-1.93,1.58-4.27,3.04-4.79,1.44-.67,2.56-.72,3.76-.74.18,0,.35,0,.53,0h0c7.95.35,28.49,5.85,34.57,7.43l-2.32,8.7h0Z"/>
        </g>
      </g>
    </g>
  </g>
</svg>