<?xml version="1.0" encoding="UTF-8"?>
<svg id="Laag_2" data-name="Laag 2" xmlns="http://www.w3.org/2000/svg" xmlns:xlink="http://www.w3.org/1999/xlink" viewBox="0 0 465.48 111.32">
  <defs>
    <style>
      .cls-1 {
        letter-spacing: -.1em;
      }

      .cls-2 {
        fill: url(#Naamloos_verloop_2);
      }

      .cls-3 {
        letter-spacing: -.1em;
      }

      .cls-4 {
        clip-path: url(#clippath-1);
      }

      .cls-5 {
        fill: #575756;
      }

      .cls-5, .cls-6 {
        font-family: Poppins-Regular, Poppins;
        font-size: 57px;
      }

      .cls-7 {
        letter-spacing: -.1em;
      }

      .cls-6 {
        fill: #009640;
      }

      .cls-8 {
        clip-path: url(#clippath);
      }

      .cls-9 {
        letter-spacing: -.1em;
      }

      .cls-10 {
        fill: none;
      }

      .cls-11 {
        letter-spacing: -.1em;
      }

      .cls-12 {
        fill: url(#Naamloos_verloop_2-2);
      }
    </style>
    <clipPath id="clippath">
      <rect class="cls-10" width="465.48" height="111.32"/>
    </clipPath>
    <clipPath id="clippath-1">
      <rect class="cls-10" width="465.48" height="111.32"/>
    </clipPath>
    <linearGradient id="Naamloos_verloop_2" data-name="Naamloos verloop 2" x1="-123.21" y1="-483.38" x2="-122.21" y2="-483.38" gradientTransform="translate(8658.81 -33760.83) scale(69.95 -69.95)" gradientUnits="userSpaceOnUse">
      <stop offset="0" stop-color="#68b42e"/>
      <stop offset=".01" stop-color="#57ae2f"/>
      <stop offset=".05" stop-color="#31a031"/>
      <stop offset=".08" stop-color="#169633"/>
      <stop offset=".11" stop-color="#059134"/>
      <stop offset=".14" stop-color="#008f35"/>
      <stop offset=".2" stop-color="#069134"/>
      <stop offset=".29" stop-color="#199732"/>
      <stop offset=".4" stop-color="#37a22f"/>
      <stop offset=".52" stop-color="#61b02b"/>
      <stop offset=".58" stop-color="#7ab929"/>
      <stop offset=".65" stop-color="#67b42d"/>
      <stop offset=".74" stop-color="#56af30"/>
      <stop offset=".81" stop-color="#51ae32"/>
      <stop offset="1" stop-color="#51ae32"/>
    </linearGradient>
    <linearGradient id="Naamloos_verloop_2-2" data-name="Naamloos verloop 2" x1="-123.05" y1="-484.16" x2="-122.05" y2="-484.16" gradientTransform="translate(7880.08 -30939.56) scale(64.04 -64.04)" xlink:href="#Naamloos_verloop_2"/>
  </defs>
  <g id="Laag_1-2" data-name="Laag 1">
    <g id="Logo-poppins-dark">
      <g class="cls-8">
        <g class="cls-4">
          <text class="cls-6" transform="translate(121.75 78.71)"><tspan class="cls-1" x="0" y="0">Fe</tspan><tspan class="cls-3" x="52.78" y="0">e</tspan><tspan class="cls-1" x="82.42" y="0">dba</tspan><tspan class="cls-7" x="181.09" y="0">c</tspan><tspan x="209.99" y="0">k</tspan></text>
          <text class="cls-5" transform="translate(357.33 78.71)"><tspan class="cls-9" x="0" y="0">F</tspan><tspan class="cls-11" x="23.03" y="0">lo</tspan><tspan x="62.24" y="0">w</tspan></text>
          <path class="cls-2" d="m66.56,76.94c3.3,2.51,8.07,5.89,14.16,9.41h0c2.91,1.68,4.88,2.67,6.08,3.18.6.26,1,.39,1.19.44l-.14.5v-.49h.14s-.14.49-.14.49v-.49,3.35l-2.08-2.59c.32-.36,1.66-.86,2.08-.77v3.35l-2.08-2.59h0s1.58,1.96,1.58,1.96h-2.68s.07-1.15,1.1-1.96l1.58,1.96h-2.68c.25-.38-2.04-6.61-5.88-16.05h0c-2.22-5.66-4.08-10.62-5.56-14.65l-1.24-3.38,3.02-1.95c8.36-5.4,15.14-10.06,20.14-13.59,2.36-1.66,4.24-3.03,5.3-3.97.53-.46.84-.82.88-.88l1.78,1.29h-2.09c.03-1.01.32-1.28.31-1.29l1.78,1.29h-2.09,3.23l-3.08.95c-.1-.31-.15-.65-.14-.95h3.23l-3.08.95h0s2.62-.81,2.62-.81l-1.23,2.57c-.13-.02-1.06-.64-1.39-1.76l2.62-.81-1.23,2.57c0-.18-3.11-.53-8.11-.42-2.28,0-4.96.02-8.03.03h0c-.15,0-.3,0-.44,0-7.1,0-13.15-.12-17.74-.25l-3.04-.08-1.06-2.85c-1.58-4.26-3.51-9.6-5.62-15.77-1.89-5.53-3.22-9.66-4.22-12.11-.48-1.21-.92-1.99-1.02-2.11l2.12-1.55v2.37c-1.61-.03-2.12-.81-2.12-.83l2.12-1.55v2.37s0-3.17,0-3.17l.08,3.17h-.08s0-3.17,0-3.17l.08,3.17h.01s-.09-3.23-.09-3.23l2.19,2.42c-.28.34-1.41.85-2.1.81l-.09-3.23,2.19,2.42-.31-.34.43.26-.12.08-.31-.34.43.26c-.4.62-1.49,3.12-3.08,8.02-2.27,6.93-3.8,12.84-4.81,17.16l-8.77-2.04c1.05-4.52,2.65-10.69,5.02-17.92,1.51-4.58,2.52-7.24,3.53-9.16.75-1.68,2.71-4.07,5.63-4.16h0s0,0,0,0h.15c5.54.85,5.82,4.27,7.24,6.89,1.23,3.03,2.53,7.11,4.4,12.59,2.08,6.09,3.98,11.35,5.54,15.55l-4.22,1.56.13-4.5c4.52.13,10.49.24,17.49.24.15,0,.29,0,.44,0h0c3.03,0,5.7-.03,8.03-.03,3.51,0,6.22.04,8.53.35,2.01.39,5.13.6,6.78,4.65h0c.17.56.26,1.15.26,1.71-1.27,6.6-5.06,6.96-9.68,10.92h0c-5.08,3.59-11.96,8.32-20.44,13.8l-2.44-3.78,4.23-1.55c1.46,3.98,3.29,8.87,5.49,14.45h0c3.71,9.76,6.25,14.48,6.5,19.35.04,1.38-.44,3.61-2.25,5.05h0s0,0,0,0c-.61.59-2.35,1.31-3.56,1.22-3.09-.18-5.3-1.31-11.64-4.84h-.02s.02,0,.02,0c-6.49-3.75-11.58-7.36-15.1-10.04l5.44-7.17h0Z"/>
          <path class="cls-12" d="m46.52,50.91c-6.62-1.81-32.03-8.29-38.51-8.42h0c-.11,0-.21,0-.3,0l-.11-.13-1.55-3.16h3.45c.16,1.26-1.23,3.03-1.9,3.16l-1.55-3.16h3.45s-2.75,0-2.75,0l2.51-1.19c.05.13.23.47.24,1.19h-2.75l2.51-1.19s.03.07.36.41c1.01,1.12,3.19,2.8,4.37,3.73h0c4.47,3.59,8.41,6.22,10.54,7.58h0c.56.36.79.5,1.45.91h0c2.29,1.44,5.32,3.39,9.07,5.92l3.29,2.22-1.79,3.54c-9.54,18.64-12.08,27.49-11.91,29.24h-.36l.29-.11.07.11h-.36l.29-.11-2.64,1,1.61-2.28c.56.38.93.98,1.03,1.28l-2.64,1,1.61-2.28h0s-1.74,2.48-1.74,2.48v-3.05c.42-.02,1.24.19,1.74.57l-1.74,2.48v-3.05l.03-.14c1.69-.74,6.21-3.77,14.45-9.53,9.66-6.72,17.51-12.05,22.46-15.38l5.02,7.47c-4.92,3.31-12.74,8.6-22.34,15.29-11.51,7.65-14.12,10.62-19.62,11.28-1.1.02-2.47-.36-3.43-1.07h0c-2.2-1.58-2.75-4.08-2.72-5.97.17-5.66,3.24-14.01,12.87-33.3l4.02,2.03-2.51,3.73c-3.67-2.47-6.62-4.37-8.84-5.77h0s0,0,0,0c-.62-.39-.89-.56-1.51-.95h0c-2.31-1.48-6.52-4.29-11.33-8.15h0c-.72-.58-2.38-1.82-3.92-3.23-1.43-1.69-3.39-2.37-3.93-6.73-.16-1.99,1.6-4.37,3.13-4.92,1.51-.7,2.72-.77,4.08-.79.2,0,.4,0,.6.01h0c9.13.39,33.42,6.87,40.53,8.72l-2.32,8.7h0Z"/>
        </g>
      </g>
    </g>
  </g>
</svg>